<?xml version="1.0" encoding="utf-8"?>
<!-- Generator: Adobe Illustrator 24.1.0, SVG Export Plug-In . SVG Version: 6.00 Build 0)  -->
<svg version="1.1" id="Capa_1" xmlns="http://www.w3.org/2000/svg" xmlns:xlink="http://www.w3.org/1999/xlink" x="0px" y="0px"
	 viewBox="0 0 242 44.5" style="enable-background:new 0 0 242 44.5;" xml:space="preserve">
<style type="text/css">
	.st0{enable-background:new    ;}
	.st1{fill:#F09711;}
	.st2{fill:#FFFFFF;}
</style>
<g class="st0">
	<path class="st1" d="M51.9,10.4V8.3h19.7v2.1h-9.2L63,9.8v24.2h-2.4V9.8l0.5,0.6H51.9z"/>
	<path class="st1" d="M89.7,31.6l8.2-23.2h2.6l-9.4,25.7h-2.5L79.3,8.3h2.6L90,31.6H89.7z"/>
</g>
<g class="st0">
	<path class="st2" d="M112.2,34.1V8.3h2.4v25.7H112.2z"/>
	<path class="st2" d="M137.9,34.5c-1.7,0-3.2-0.3-4.6-0.9c-1.4-0.6-2.5-1.5-3.4-2.7s-1.3-2.6-1.3-4.3h2.3c0,1.3,0.3,2.4,1,3.2
		c0.6,0.8,1.5,1.5,2.5,1.9c1,0.4,2.2,0.6,3.4,0.6c1.4,0,2.6-0.2,3.6-0.7c1-0.5,1.8-1.1,2.3-1.8c0.5-0.8,0.8-1.5,0.8-2.4
		c0-1.2-0.4-2.2-1.1-3s-1.8-1.4-3.2-1.8l-4.3-1.4c-2.2-0.8-3.9-1.6-5-2.6c-1.1-1-1.7-2.3-1.7-4.1c0-1.9,0.7-3.5,2.2-4.8
		c1.5-1.2,3.6-1.9,6.4-1.9c2.5,0,4.4,0.6,5.9,1.7c1.4,1.1,2.2,2.6,2.5,4.5h-2.4c-0.2-1.3-0.8-2.3-1.8-2.9c-1-0.7-2.4-1-4.1-1
		c-1.9,0-3.4,0.4-4.4,1.3s-1.6,1.9-1.6,3.3c0,1.1,0.3,1.9,1,2.5s1.7,1.2,3.1,1.6l5.2,1.7c1.8,0.6,3.3,1.4,4.4,2.5
		c1.1,1.1,1.7,2.5,1.7,4.3c0,1.3-0.4,2.4-1.1,3.5s-1.8,2-3.1,2.7S139.9,34.5,137.9,34.5z"/>
	<path class="st2" d="M161.2,34.1V8.3h2.4v25.7H161.2z"/>
	<path class="st2" d="M187.8,34.5c-2.1,0-3.9-0.5-5.5-1.5c-1.6-1-2.9-2.4-3.9-4.4s-1.4-4.4-1.4-7.4c0-3,0.5-5.5,1.4-7.5
		s2.3-3.5,3.9-4.4s3.5-1.5,5.5-1.5c2,0,3.9,0.5,5.5,1.5c1.6,1,2.9,2.5,3.9,4.4s1.4,4.5,1.4,7.5c0,3-0.5,5.5-1.4,7.4
		c-1,2-2.3,3.4-3.9,4.4C191.7,34.1,189.8,34.5,187.8,34.5z M187.8,32.3c2.6,0,4.6-0.9,6.1-2.8c1.5-1.9,2.2-4.6,2.2-8.2
		c0-3.6-0.7-6.3-2.2-8.3s-3.5-2.9-6.1-2.9c-2.6,0-4.6,1-6.1,2.9s-2.3,4.7-2.3,8.3c0,3.6,0.8,6.4,2.3,8.2
		C183.2,31.3,185.2,32.3,187.8,32.3z"/>
	<path class="st2" d="M211.9,8.3h3.1L228.8,31h-0.3V8.3h2.4v25.7H228l-14.1-23.2h0.4v23.2h-2.4V8.3z"/>
</g>
<path class="st1" d="M37.1,7.1l-13.2-6C17.6-1.8,10.1,1,7.2,7.4c0,0,0,0,0,0l-6,13.2C-1.7,26.9,1,34.4,7.4,37.3c0,0,0,0,0,0l13.2,6
	c6.3,2.9,13.8,0.1,16.7-6.3c0,0,0,0,0,0l6-13.2C46.2,17.5,43.4,10,37.1,7.1z M32.2,24.4l-13.6,7.9c-1.2,0.7-2.7,0.3-3.4-0.9
	c-0.2-0.4-0.3-0.8-0.3-1.2V14.4c0-1.4,1.1-2.5,2.5-2.5c0.4,0,0.9,0.1,1.2,0.3l13.6,7.9c1.2,0.7,1.6,2.2,0.9,3.3
	C32.9,23.8,32.5,24.2,32.2,24.4z"/>
</svg>
