<svg id="Capa_1" data-name="Capa 1" xmlns="http://www.w3.org/2000/svg" viewBox="0 0 241.99 44.48"><defs><style>.cls-1{font-size:41.69px;font-family:Karla-Light, Karla;font-weight:300;letter-spacing:0.16em;}.cls-1,.cls-3{fill:#f09711;}.cls-2{fill:#fff;}</style></defs><text class="cls-1" transform="translate(51.66 34.08)">TV<tspan class="cls-2" x="56.17" y="0">ISION</tspan></text><path class="cls-3" d="M37.07,7.14l-13.18-6A12.62,12.62,0,0,0,7.15,7.41l-6,13.2A12.61,12.61,0,0,0,7.41,37.33l13.18,6a12.63,12.63,0,0,0,16.74-6.27l6-13.18A12.64,12.64,0,0,0,37.07,7.14ZM32.16,24.38,18.55,32.24a2.48,2.48,0,0,1-3.7-2.12V14.38a2.46,2.46,0,0,1,3.7-2.12l13.61,7.86A2.45,2.45,0,0,1,32.16,24.38Z"/></svg>