<?xml version="1.0" encoding="utf-8"?>
<!-- Generator: Adobe Illustrator 24.1.0, SVG Export Plug-In . SVG Version: 6.00 Build 0)  -->
<svg version="1.1" id="Capa_1" xmlns="http://www.w3.org/2000/svg" xmlns:xlink="http://www.w3.org/1999/xlink" x="0px" y="0px"
	 viewBox="0 0 44.5 44.5" style="enable-background:new 0 0 44.5 44.5;" xml:space="preserve">
<style type="text/css">
	.st0{fill:#F09711;}
</style>
<path class="st0" d="M37.1,7.1l-13.2-6C17.5-1.8,10.1,1,7.2,7.4c0,0,0,0,0,0l-6,13.2C-1.8,26.9,1,34.4,7.4,37.3c0,0,0,0,0,0l13.2,6
	c6.3,2.9,13.8,0.1,16.7-6.3c0,0,0,0,0,0l6-13.2C46.2,17.5,43.4,10,37.1,7.1z M32.2,24.4l-13.6,7.9c-1.2,0.7-2.7,0.3-3.4-0.9
	c-0.2-0.4-0.3-0.8-0.3-1.2V14.4c0-1.4,1.1-2.5,2.5-2.5c0.4,0,0.9,0.1,1.2,0.3l13.6,7.9c1.2,0.7,1.6,2.2,0.9,3.3
	C32.9,23.8,32.5,24.2,32.2,24.4z"/>
</svg>
